<svg width="100%" height="100%" viewBox="0 0 2697 986" version="1.1" xmlns="http://www.w3.org/2000/svg" xmlns:xlink="http://www.w3.org/1999/xlink" xml:space="preserve" xmlns:serif="http://www.serif.com/" style="fill-rule:evenodd;clip-rule:evenodd;stroke-linejoin:round;stroke-miterlimit:2;"><path d="M479.279,272.508c12.759,-15.416 20.125,-35.379 19.171,-56.941c-2.046,-46.142 -41.108,-81.892 -87.25,-79.846c-22.596,1 -42.658,10.916 -57.05,26.154l-0.025,-0.021l-0.375,0.421c-0.421,0.45 -0.825,0.908 -1.237,1.371l-200.463,222.775l-123.487,132.312c-0.063,0.059 -0.134,0.109 -0.196,0.167c-2.559,2.404 -4.913,5.008 -7.15,7.708l-0.45,0.479l0.046,0.038c-12.65,15.5 -19.884,35.512 -18.784,57.071c2.354,46.125 41.659,81.608 87.784,79.254c22.587,-1.154 42.583,-11.204 56.875,-26.538l0.02,0.021l0.375,-0.421c0.417,-0.454 0.821,-0.916 1.225,-1.383l182.6,-205.687l140.563,-148.592c0.062,-0.058 0.137,-0.108 0.2,-0.171c2.575,-2.383 4.946,-4.971 7.204,-7.654l0.45,-0.475l-0.046,-0.042Z" style="fill:#2ca6e0;fill-rule:nonzero;"/><path d="M819.909,280.115c12.696,-15.583 20.021,-35.766 19.054,-57.575c-2.075,-46.67 -41.016,-82.854 -86.979,-80.825c-22.508,0.996 -42.487,11.009 -56.812,26.409l-0.025,-0.021l-0.375,0.425c-0.417,0.454 -0.821,0.921 -1.229,1.383l-199.525,225.159l-122.909,133.725c-0.062,0.058 -0.133,0.112 -0.196,0.17c-2.55,2.43 -4.891,5.059 -7.12,7.788l-0.446,0.483l0.046,0.042c-12.592,15.667 -19.784,35.9 -18.667,57.704c2.379,46.654 41.562,82.575 87.508,80.229c22.5,-1.15 42.413,-11.3 56.638,-26.796l0.021,0.021l0.375,-0.425c0.412,-0.458 0.812,-0.929 1.22,-1.396l181.738,-207.891l139.912,-150.179c0.063,-0.059 0.134,-0.109 0.196,-0.171c2.567,-2.409 4.925,-5.025 7.171,-7.738l0.45,-0.479l-0.046,-0.042Z" style="fill:#60c1c9;fill-rule:nonzero;"/><path d="M2.433,585.364c1.271,19.45 9.396,38.629 24.484,53.496c32.283,31.816 83.829,31.875 115.125,0.133c15.329,-15.546 22.908,-35.833 22.912,-56.229l0.029,-0l-0.012,-0.55c-0.004,-0.6 -0.025,-1.196 -0.042,-1.796l-7.241,-324.925l0.183,-33.375c0.008,-0.083 0.021,-0.167 0.029,-0.25c0.204,-3.408 0.133,-6.821 -0.087,-10.233l-0.005,-0.634l-0.058,0c-1.4,-19.441 -9.654,-38.566 -24.842,-53.337c-32.491,-31.6 -79.27,-31.275 -110.35,0.683c-15.22,15.65 -22.662,35.992 -22.529,56.388l-0.029,-0l0.017,0.55c0.004,0.6 0.033,1.195 0.054,1.795l2.525,158.159l-0.208,199.008c-0.009,0.083 -0.025,0.167 -0.03,0.25c-0.229,3.404 -0.179,6.821 0.017,10.229l0,0.638l0.058,-0Z" style="fill:#00a199;fill-rule:nonzero;"/><g><g><path d="M342.756,596.353c1.425,19.883 9.85,39.537 25.371,54.829c33.208,32.721 85.904,33.113 117.7,0.867c15.571,-15.788 23.188,-36.475 23.067,-57.317l0.029,0l-0.017,-0.562c-0.008,-0.613 -0.033,-1.221 -0.054,-1.834l-9.471,-332.116l-0.025,-34.113c0.004,-0.083 0.017,-0.167 0.025,-0.254c0.188,-3.479 0.092,-6.971 -0.154,-10.458l-0.008,-0.65l-0.059,0.004c-1.558,-19.879 -10.116,-39.479 -25.737,-54.671c-33.421,-32.504 -81.242,-32.467 -112.813,-0.004c-15.462,15.896 -22.937,36.641 -22.675,57.483l-0.029,0l0.021,0.563c0.013,0.612 0.042,1.225 0.067,1.837l3.587,161.65l1.059,203.383c-0.009,0.088 -0.025,0.171 -0.03,0.259c-0.212,3.475 -0.141,6.966 0.084,10.454l0.004,0.65l0.058,-0Z" style="fill:#2ca6e0;fill-rule:nonzero;"/></g></g><path d="M843.1,146.123c-34.513,-30.692 -37.613,-83.55 -6.921,-118.067c30.691,-34.512 83.55,-37.612 118.066,-6.921c19.134,17.017 28.613,40.846 28.03,64.584c-0.467,19.079 -7.434,38.104 -21.109,53.483c-30.691,34.513 -83.554,37.613 -118.066,6.921" style="fill:#62c1c9;fill-rule:nonzero;"/><path d="M1245.42,633.642c-19.563,0 -39.13,-14.35 -46.955,-46.087c-11.308,-46.088 -33.916,-180.442 -38.7,-216.963c-0.866,-5.654 -2.17,-7.829 -3.475,-7.829c-1.304,0 -2.612,3.042 -3.483,7.829c-5.65,39.563 -26.521,163.046 -40.433,216.53c-7.829,31.304 -29.134,46.52 -50.004,46.52c-21.305,0 -41.738,-15.216 -48.263,-46.087c-46.521,-220.008 -52.608,-253.054 -52.608,-260.879c-0,-15.221 13.479,-23.046 26.525,-23.046c12.171,-0 23.912,6.521 26.083,19.133c43.483,250.009 44.354,252.617 50.438,252.617c3.479,-0 6.52,-4.783 7.829,-11.304c8.262,-36.088 31.737,-167.834 43.046,-225.663c4.341,-23.475 22.17,-33.912 40,-33.912c19.129,-0 38.262,11.741 42.175,32.175c9.566,49.566 31.304,174.787 40.433,225.225c1.308,7.391 3.479,10 5.654,10c6.088,-0 8.7,-0 57.829,-249.571c2.609,-12.613 13.475,-18.7 24.35,-18.7c13.475,-0 27.392,8.696 27.392,22.612c-0,8.259 -23.046,111.742 -59.571,263.05c-6.958,28.7 -27.825,44.35 -48.262,44.35" style="fill:#00a199;fill-rule:nonzero;"/><path d="M1536.31,484.941c0,-6.083 -9.133,-31.741 -48.262,-31.741c-35.217,-0 -54.35,30.437 -54.35,37.829c-0,3.912 4.346,3.912 44.779,3.912c17.829,0 37.396,0 49.133,-0.433c5.221,-0.433 8.7,-4.346 8.7,-9.567m-47.829,152.179c-59.566,0 -103.916,-44.783 -103.916,-109.566c-0,-66.525 46.958,-112.179 103.05,-112.179c59.995,-0 93.912,43.912 93.912,76.958c0,20.433 -13.479,36.958 -41.304,37.829c-13.479,0.433 -22.608,0.433 -106.963,0.433c-2.608,0 -3.479,3.48 -3.479,8.263c0.434,36.087 28.263,57.825 59.134,57.825c27.395,-0 43.916,-13.042 56.525,-26.521c4.35,-4.779 9.562,-6.954 14.783,-6.954c11.742,-0 23.042,10.433 23.042,22.608c-0,5.217 -1.738,10.434 -6.521,15.217c-20.871,21.742 -44.35,36.087 -88.263,36.087" style="fill:#2ca6e0;fill-rule:nonzero;"/><path d="M1722.39,637.555c-70.875,0 -107.395,-40.433 -107.395,-61.741c-0,-14.35 12.608,-24.784 25.216,-24.784c6.959,0 13.917,3.48 19.129,10.871c11.309,16.088 32.613,29.134 63.484,29.134c47.825,-0 58.262,-32.613 58.262,-46.525c0,-17.392 -10.437,-36.088 -33.046,-48.696c-19.133,-10.871 -42.608,-23.917 -65.654,-34.35c-38.262,-17.392 -55.654,-48.263 -55.654,-78.267c0,-42.175 33.917,-82.612 93.917,-82.612c60.004,-0 94.354,28.7 94.354,49.137c-0,13.042 -10.875,25.217 -24.354,25.217c-6.521,-0 -13.913,-3.046 -20.434,-10.438c-8.262,-9.129 -23.045,-20 -50.004,-20c-27.825,0 -44.779,17.392 -44.779,36.959c0,13.479 8.258,28.262 27.392,38.262c17.825,9.567 47.829,23.479 67.825,34.35c43.483,23.913 61.741,56.958 61.741,89.133c0,46.521 -39.562,94.35 -110,94.35" style="fill:#2ca6e0;fill-rule:nonzero;"/><path d="M1989.79,531.9c-73.479,9.13 -77.829,27.392 -77.829,37.83c0,13.479 11.742,26.954 33.917,26.954c35.216,-0 50.433,-17.825 50.433,-48.696c0,-6.521 -0.867,-16.088 -6.087,-16.088l-0.434,0Zm40.004,93.484c-3.916,-3.046 -7.829,-7.829 -11.741,-14.35c-0.438,-0.871 -1.304,-1.304 -1.738,-1.304c-0.871,-0 -1.737,0.433 -2.608,1.304c-14.783,16.958 -42.175,26.087 -67.829,26.087c-47.829,0 -76.092,-34.783 -76.092,-68.262c0,-22.175 13.046,-44.35 42.175,-54.35c30,-10.434 67.396,-18.696 74.354,-19.134c4.346,-0.433 7.825,-5.65 7.825,-14.783c0,-5.217 -1.304,-27.392 -30.871,-27.392c-19.566,0 -34.345,9.134 -42.612,18.263c-4.779,5.654 -10.867,7.829 -16.088,7.829c-11.304,0 -20.866,-8.7 -20.866,-20.004c-0,-20.871 38.262,-43.917 82.175,-43.917c47.829,0 73.912,23.484 73.912,73.484c0,5.654 -0.433,10.87 -0.866,16.958c-0.871,6.521 -2.175,23.042 -2.175,36.087c-0,3.913 -0,7.392 0.437,10c3.913,34.784 20,36.088 23.479,38.7c4.779,3.475 6.954,9.13 6.954,15.217c0,12.175 -9.566,26.088 -22.175,26.088c-4.779,-0 -10.433,-2.175 -15.65,-6.521" style="fill:#2ca6e0;fill-rule:nonzero;"/><path d="M2250.24,612.338c0.434,-17.825 0.871,-50.871 0.871,-77.392c0,-17.396 -0.437,-32.175 -0.871,-39.133c-1.737,-26.958 -16.954,-37.829 -35.216,-37.829c-26.525,-0 -58.263,23.479 -59.571,52.612c-0.434,7.825 -0.434,17.825 -0.434,30c0,17.829 0.434,40.871 1.309,71.742c0.433,9.133 -4.788,22.175 -22.179,22.175c-11.738,-0 -23.042,-7.392 -23.042,-21.304l-0,-0.871c1.3,-41.304 1.737,-70.004 1.737,-95.654c0,-26.088 -0.437,-48.696 -1.304,-77.829l0,-0.871c0,-13.046 12.609,-19.567 23.484,-19.567c10.866,0 22.17,6.521 22.17,20.438c0,1.737 -0.433,3.041 -0.433,4.345l0,1.305c0,0.437 0,0.87 0.433,0.87c0.434,0 1.305,-0.87 2.175,-1.741c16.084,-17.388 39.134,-26.088 61.742,-26.088c36.521,0 71.738,23.917 73.475,72.613c0.442,15.654 1.308,54.35 1.308,86.525c0,13.479 0,25.654 -0.433,34.783c-0.433,15.654 -11.304,23.046 -22.612,23.046c-11.3,-0 -22.609,-7.825 -22.609,-21.742l0,-0.433Z" style="fill:#2ca6e0;fill-rule:nonzero;"/><path d="M2532.86,526.247c0,-43.046 -27.829,-69.567 -62.612,-69.567c-34.784,0 -62.609,26.521 -62.609,69.567c0,42.608 27.825,68.7 62.609,68.7c34.783,0 62.612,-26.092 62.612,-68.7m-121.312,87.829c-0.867,-0.871 -1.738,-1.304 -2.605,-1.304c-0.437,0 -0.87,0.433 -1.304,2.175c-2.179,12.175 -12.175,18.263 -21.741,18.263c-10.871,-0 -22.18,-7.83 -22.18,-23.917c0,-43.479 1.309,-134.788 1.309,-203.483c-0,-34.35 -0.434,-63.046 -1.309,-77.396c-1.3,-21.304 17.83,-24.784 22.617,-24.784c11.3,0 22.171,7.392 22.171,21.738l-0,0.875c-0.433,18.258 -1.304,62.175 -1.304,112.608c-0,1.742 0.437,2.175 1.304,2.175c0.437,0 1.304,0 2.175,-0.866c16.092,-14.35 36.521,-23.046 60.437,-23.046c60,-0 105.221,45.654 105.221,109.133c0,65.654 -45.221,109.138 -105.221,109.138c-23.483,-0 -43.479,-7.83 -59.57,-21.309" style="fill:#2ca6e0;fill-rule:nonzero;"/><path d="M2657.21,635.817c-11.742,0 -23.046,-7.391 -23.046,-22.175c0,-36.087 0.438,-85.654 0.438,-125.225c-0,-19.562 -0,-36.954 -0.438,-48.695c-0.437,-14.346 10.438,-22.175 23.479,-22.175c11.305,-0 23.046,6.958 23.046,20.87l0,0.871c-0.437,17.825 -0.871,52.175 -0.871,88.7c0,30 0.434,60.871 0.871,84.784l0,0.87c0,14.784 -11.741,22.175 -23.479,22.175m-30.437,-304.358c-0,-21.308 18.262,-29.567 30.437,-29.567c15.65,0 30.433,13.046 30.433,29.567c0,15.654 -11.741,30.871 -30.433,30.871c-16.958,-0 -30.437,-10.871 -30.437,-30.871" style="fill:#2ca6e0;fill-rule:nonzero;"/><path d="M2675.49,775.695l-2644.47,-0c-11.346,-0 -20.629,-9.283 -20.629,-20.629l0,-7.154c0,-11.346 9.283,-20.63 20.629,-20.63l2644.47,0c11.346,0 20.629,9.284 20.629,20.63l0,7.154c0,11.346 -9.283,20.629 -20.629,20.629" style="fill:#00a199;fill-rule:nonzero;"/><path d="M142.306,928.307c4.611,-9.607 9.735,-19.983 15.115,-28.949c5.764,-9.351 0.641,-16.909 -11.016,-14.603c-5.508,1.025 -13.322,2.946 -18.445,3.202c-7.686,0.513 -8.07,12.425 0.384,12.169c5.252,-0.128 10.119,-1.793 15.115,-3.074c1.921,-0.512 1.537,0.512 0.768,2.306c-3.586,8.069 -9.478,19.726 -13.962,29.333c-7.045,0.769 -14.218,2.562 -21.007,5.508c-14.731,6.533 -19.47,19.855 -12.938,28.053c5.508,6.789 16.781,6.02 24.466,-0c7.302,-5.637 11.657,-13.578 16.396,-23.442c10.248,0.129 20.367,2.434 29.846,6.405c-3.971,7.814 -10.632,15.756 -20.239,21.648c-8.326,5.124 -1.921,15.115 7.045,9.863c11.529,-6.789 19.599,-16.396 24.338,-26.003c5.124,3.074 9.735,6.533 13.963,10.376c7.301,6.661 16.011,-5.124 7.941,-11.401c-4.995,-3.842 -11.016,-7.685 -17.677,-10.888c1.922,-8.454 1.538,-16.139 -1.281,-21.263c-4.227,-7.942 -15.755,-3.074 -12.168,2.946c2.049,3.459 2.561,8.198 1.793,13.45c-8.711,-3.074 -18.189,-5.252 -27.796,-5.636l-0.641,-0Zm-17.549,11.528c-2.946,5.252 -6.404,10.504 -10.632,13.706c-2.305,1.794 -6.917,2.562 -8.454,0.385c-2.177,-3.203 3.843,-8.583 7.173,-10.248c4.74,-2.306 8.583,-3.33 11.913,-3.843Z" style="fill:#231815;fill-rule:nonzero;"/><path d="M312.543,969.425c7.557,-5.892 12.553,-14.219 16.139,-21.264c4.868,-9.607 -8.582,-16.14 -12.297,-6.661c-2.305,5.893 -5.123,12.041 -11.656,17.934c-7.558,6.789 -18.574,8.198 -18.574,-3.203c0,-4.739 1.025,-9.094 0.641,-14.09c-1.794,-21.648 -23.954,-15.628 -28.565,-11.529c-0.897,0.769 -1.281,1.025 -0.384,-0.256c2.818,-4.227 5.38,-8.326 8.71,-13.065c3.33,-4.74 7.429,-10.12 13.578,-17.037c1.409,-1.665 2.69,-3.074 3.715,-4.355c1.024,-1.281 1.921,-2.69 2.946,-4.483c4.227,-8.07 -7.686,-14.475 -11.913,-6.917c-1.409,2.562 -4.867,7.045 -7.045,10.631c-6.277,9.992 -12.938,20.88 -20.367,32.408c-7.429,11.529 -14.731,24.338 -20.495,38.813c-2.946,7.429 3.074,10.503 7.558,9.863c2.561,-0.384 5.379,-1.025 7.685,-10.888c1.409,-6.277 4.996,-11.913 8.07,-17.421c3.587,-6.405 23.057,-18.445 23.697,-4.227c0.257,5.764 -0.64,9.351 -0.64,15.243c-0.256,24.21 25.363,21.392 39.197,10.504Z" style="fill:#231815;fill-rule:nonzero;"/><path d="M442.942,919.34c6.277,3.971 12.938,-6.661 4.227,-11.913c-6.148,-3.714 -15.115,-5.251 -23.569,-4.483c-8.198,0.769 -7.686,11.401 -0.641,11.016c7.43,-0.384 13.963,1.537 19.983,5.38Zm-57.77,-12.809c-6.277,13.45 -13.834,24.338 -21.008,34.969c-5.636,8.327 6.661,13.322 11.401,5.637c8.198,-13.322 16.908,-28.693 22.929,-43.168c5.251,-1.537 10.503,-3.587 13.706,-5.892c8.198,-5.893 0.128,-13.834 -5.637,-9.735c-1.152,0.768 -2.561,1.409 -4.099,2.177c0.897,-3.074 1.666,-5.892 1.794,-7.814c0.256,-7.301 -11.016,-8.71 -12.169,-1.152c-0.641,4.611 -1.281,8.71 -2.562,12.937c-6.661,1.665 -13.322,1.793 -17.549,0.384c-9.095,-2.946 -11.528,8.839 -3.715,11.016c4.868,1.409 10.376,1.922 16.909,0.641Zm40.349,60.076c2.946,2.049 5.38,4.355 7.302,6.661c6.148,7.429 16.524,-1.666 9.222,-9.735c-3.202,-3.459 -8.838,-7.43 -15.627,-10.248c-0.128,-2.818 -0.384,-5.508 -0.512,-7.942c-0.128,-3.714 -0.128,-6.917 -0.128,-9.863c-0,-2.69 0.384,-4.099 0.768,-6.02c1.281,-7.686 -9.991,-9.351 -11.528,-2.306c-0.513,2.434 -0.769,6.02 -0.641,8.582c0.128,3.203 0.384,6.405 0.384,9.607l0,4.484c-7.941,-1.41 -16.652,-1.153 -24.594,2.433c-13.193,5.893 -11.784,19.727 0.129,25.747c15.499,7.814 31.511,-1.153 35.225,-11.4Zm-11.4,-6.021c-0.128,0.385 -0,0.897 -0.128,1.281c-1.409,6.917 -11.785,10.632 -19.47,6.789c-3.843,-1.921 -3.587,-5.636 -0.128,-7.429c6.276,-3.074 13.193,-2.818 19.726,-0.641Z" style="fill:#231815;fill-rule:nonzero;"/><path d="M520.951,925.361c-1.281,0.896 -2.434,1.921 -3.715,2.946c-20.751,16.524 -21.519,37.275 -3.074,46.626c12.681,6.405 34.073,3.843 44.193,1.025c11.4,-3.203 7.557,-17.933 -3.203,-13.834c-7.685,2.818 -26.003,6.148 -34.969,1.665c-9.992,-4.868 -9.607,-14.475 3.074,-25.235c10.119,-8.582 23.313,-16.011 36.378,-22.672c9.864,-4.996 3.203,-17.293 -5.508,-12.425c-8.326,4.611 -15.627,9.222 -22.544,14.09c-3.715,-10.632 -9.479,-22.032 -14.987,-29.846c-5.124,-7.301 -17.677,-0.384 -11.016,7.814c5.892,7.173 12.041,19.726 15.371,29.846Z" style="fill:#231815;fill-rule:nonzero;"/><path d="M694.774,956.744c15.756,-13.066 20.88,-31.383 7.046,-45.858c-11.785,-12.297 -31.255,-12.425 -45.858,-8.71c-13.834,3.458 -28.949,10.375 -40.093,14.987c-9.607,3.971 -4.099,17.548 6.276,12.809c6.277,-2.946 12.041,-5.892 17.805,-8.71c5.764,-2.818 11.657,-5.508 18.318,-7.558c11.528,-3.458 26.003,-3.715 34.201,5.636c5.892,6.789 5.123,17.293 -5.765,26.9c-9.094,8.07 -21.519,12.809 -37.659,14.987c-10.248,1.409 -9.351,15.499 2.562,13.578c18.958,-3.203 32.792,-9.479 43.167,-18.061Z" style="fill:#231815;fill-rule:nonzero;"/><path d="M827.223,919.34c6.277,3.971 12.938,-6.661 4.227,-11.913c-6.148,-3.714 -15.115,-5.251 -23.569,-4.483c-8.198,0.769 -7.685,11.401 -0.64,11.016c7.429,-0.384 13.962,1.537 19.982,5.38Zm-57.77,-12.809c-6.277,13.45 -13.834,24.338 -21.007,34.969c-5.636,8.327 6.661,13.322 11.4,5.637c8.198,-13.322 16.908,-28.693 22.929,-43.168c5.252,-1.537 10.503,-3.587 13.706,-5.892c8.198,-5.893 0.128,-13.834 -5.636,-9.735c-1.153,0.768 -2.562,1.409 -4.099,2.177c0.896,-3.074 1.665,-5.892 1.793,-7.814c0.256,-7.301 -11.016,-8.71 -12.169,-1.152c-0.64,4.611 -1.281,8.71 -2.562,12.937c-6.661,1.665 -13.322,1.793 -17.549,0.384c-9.094,-2.946 -11.528,8.839 -3.714,11.016c4.867,1.409 10.375,1.922 16.908,0.641Zm40.35,60.076c2.946,2.049 5.38,4.355 7.301,6.661c6.148,7.429 16.524,-1.666 9.223,-9.735c-3.203,-3.459 -8.839,-7.43 -15.628,-10.248c-0.128,-2.818 -0.384,-5.508 -0.512,-7.942c-0.128,-3.714 -0.128,-6.917 -0.128,-9.863c-0,-2.69 0.384,-4.099 0.768,-6.02c1.281,-7.686 -9.991,-9.351 -11.528,-2.306c-0.512,2.434 -0.769,6.02 -0.641,8.582c0.129,3.203 0.385,6.405 0.385,9.607l-0,4.484c-7.942,-1.41 -16.652,-1.153 -24.594,2.433c-13.194,5.893 -11.785,19.727 0.128,25.747c15.499,7.814 31.511,-1.153 35.226,-11.4Zm-11.401,-6.021c-0.128,0.385 0,0.897 -0.128,1.281c-1.409,6.917 -11.784,10.632 -19.47,6.789c-3.843,-1.921 -3.587,-5.636 -0.128,-7.429c6.276,-3.074 13.193,-2.818 19.726,-0.641Z" style="fill:#231815;fill-rule:nonzero;"/><path d="M969.535,892.953c4.612,4.611 11.401,-3.715 6.021,-8.582c-3.074,-2.69 -9.991,-5.765 -13.45,-6.661c-6.148,-1.665 -10.247,6.533 -3.587,8.71c2.69,0.897 9.223,4.74 11.016,6.533Zm-11.144,11.913c4.484,4.739 11.401,-3.331 6.149,-8.326c-2.946,-2.819 -9.607,-6.149 -13.066,-7.174c-6.02,-1.921 -10.632,6.021 -3.971,8.454c2.562,0.897 9.095,5.124 10.888,7.046Zm12.554,26.259c-3.459,-9.223 -12.554,-18.318 -22.801,-24.338c-7.942,-4.611 -13.578,4.996 -7.302,8.454c9.479,5.252 15.244,14.987 18.318,22.032c3.458,7.942 14.987,2.306 11.785,-6.148Zm-63.151,-22.288c1.537,-6.021 3.203,-13.707 3.715,-18.062c1.025,-8.582 -12.041,-9.351 -12.937,-1.024c-0.769,7.173 -2.434,14.73 -3.971,20.366l-6.405,0.641c-4.611,0.384 -8.582,0.256 -12.553,0.64c-8.198,0.769 -8.326,12.297 0.384,12.297c3.33,0 8.326,-0.768 13.834,-1.793l1.537,-0.256c-5.892,17.164 -13.834,31.767 -22.672,41.63c-8.326,9.351 4.995,16.781 11.144,8.07c9.991,-14.218 18.573,-31.639 24.85,-51.493c2.05,-0.257 3.971,-0.513 5.892,-0.641c5.893,-0.512 8.583,3.202 8.583,11.016c-0,6.789 -1.153,15.884 -4.099,22.16c-3.587,7.558 -8.967,8.711 -16.268,6.917c-7.814,-1.921 -11.913,9.864 -1.794,12.81c12.297,3.586 24.851,-2.69 30.102,-15.371c3.331,-8.07 4.612,-19.599 4.356,-28.565c-0.513,-14.347 -8.711,-20.623 -19.471,-19.727l-4.227,0.385Z" style="fill:#231815;fill-rule:nonzero;"/><path d="M1054.72,966.351c-0.384,-11.529 -9.991,-17.677 -20.239,-17.293c-15.115,0.512 -21.135,16.396 -7.558,25.234c9.736,6.405 29.718,5.893 42.4,-3.202c13.449,-9.735 19.47,-32.28 1.024,-43.296c-9.479,-5.636 -24.722,-5.636 -35.994,0.385c4.611,-4.484 9.735,-9.095 14.859,-13.834c5.124,-4.74 10.247,-9.736 14.346,-14.347c6.405,-7.173 -2.049,-16.268 -12.297,-13.322c-7.301,2.178 -19.598,5.252 -28.18,6.277c-8.711,1.025 -6.789,13.706 3.33,11.528c9.479,-2.049 17.933,-4.611 21.52,-6.532c1.025,-0.513 2.306,-1.025 0.897,0.768c-14.219,17.549 -24.594,27.412 -38.685,41.374c-7.942,7.814 4.868,15.372 9.479,8.583c2.946,-4.356 5.636,-6.661 10.76,-9.607c12.937,-7.558 26.772,-6.661 33.432,-2.178c7.302,4.868 7.686,17.037 -1.665,25.363c-2.305,2.049 -4.995,3.586 -7.429,4.099Zm-10.888,1.921c-3.587,0.128 -7.814,-0.384 -10.76,-1.921c-4.099,-2.178 -3.843,-7.43 1.793,-7.942c5.636,-0.513 9.095,3.971 8.967,9.863Z" style="fill:#231815;fill-rule:nonzero;"/><path d="M1138.11,985.308c3.458,0 6.917,-2.946 6.917,-7.045c-0,-8.71 -20.495,-19.982 -24.978,-19.982c-3.715,-0 -6.021,2.69 -6.021,5.636c0,1.921 1.025,3.843 3.459,5.124c5.508,2.818 12.553,8.71 15.755,13.449c1.281,1.922 3.075,2.818 4.868,2.818Z" style="fill:#231815;fill-rule:nonzero;"/><path d="M1293.23,946.88c3.971,-0.256 7.942,-0.896 11.401,-2.049c7.557,-2.562 4.355,-13.834 -4.099,-11.529c-1.922,0.513 -3.971,0.897 -6.149,1.153c0.513,-5.38 1.153,-10.888 1.922,-16.652c2.69,-0.256 5.251,-0.512 7.813,-1.281c7.558,-2.177 5.38,-13.578 -2.946,-11.656c-1.025,0.256 -2.049,0.512 -3.202,0.64c0.128,-1.537 0.384,-3.074 0.512,-4.611c0.897,-7.558 2.178,-12.425 2.178,-18.446c-0,-7.557 -12.169,-9.607 -12.81,-0.64c-0.384,6.02 -0.64,10.888 -1.409,18.958c-0.128,1.537 -0.384,3.202 -0.512,4.739c-3.202,-0.384 -6.405,-1.281 -9.223,-2.434c-6.789,-2.818 -12.425,8.967 -2.69,12.297c1.666,0.641 5.765,1.537 10.632,2.178c-0.64,5.764 -1.281,11.4 -1.793,17.036c-3.587,-0.256 -6.917,-1.024 -9.863,-1.921c-7.302,-2.434 -11.273,9.735 -0.897,12.553c1.665,0.384 5.252,1.153 9.863,1.537c-0.256,3.971 -0.256,7.814 -0.128,11.401c1.025,34.201 41.887,29.974 51.109,5.636c4.868,-12.938 1.281,-25.107 -8.71,-36.635c-5.636,-6.533 -16.652,0.256 -9.991,7.557c7.173,7.814 10.76,16.268 6.276,25.875c-6.661,14.219 -26.643,14.987 -27.412,-3.33c-0.128,-3.202 -0.128,-6.661 0.128,-10.376Z" style="fill:#231815;fill-rule:nonzero;"/><path d="M1454.63,965.198c11.656,-9.735 16.011,-23.954 5.251,-35.098c-8.966,-9.351 -23.697,-9.223 -34.457,-6.533c-10.119,2.562 -21.263,7.686 -29.461,11.016c-8.327,3.459 -3.331,15.372 5.508,11.273c8.71,-3.971 17.036,-9.095 26.259,-11.913c8.326,-2.434 18.445,-2.562 23.953,3.715c3.843,4.355 3.459,11.4 -4.227,18.189c-6.404,5.636 -15.243,9.095 -26.899,10.76c-8.839,1.281 -7.814,13.578 2.305,11.913c13.962,-2.306 24.082,-6.918 31.768,-13.322Z" style="fill:#231815;fill-rule:nonzero;"/><path d="M1545.7,925.361c-1.281,0.896 -2.434,1.921 -3.715,2.946c-20.751,16.524 -21.519,37.275 -3.074,46.626c12.681,6.405 34.073,3.843 44.193,1.025c11.4,-3.203 7.557,-17.933 -3.203,-13.834c-7.685,2.818 -26.003,6.148 -34.969,1.665c-9.992,-4.868 -9.607,-14.475 3.074,-25.235c10.119,-8.582 23.313,-16.011 36.378,-22.672c9.864,-4.996 3.203,-17.293 -5.508,-12.425c-8.326,4.611 -15.627,9.222 -22.544,14.09c-3.715,-10.632 -9.479,-22.032 -14.987,-29.846c-5.124,-7.301 -17.677,-0.384 -11.016,7.814c5.892,7.173 12.041,19.726 15.371,29.846Z" style="fill:#231815;fill-rule:nonzero;"/><path d="M1700.57,875.788c-0,-3.714 -2.819,-5.636 -5.765,-5.636c-2.818,0 -5.764,1.922 -5.764,5.636l0,5.124l-11.656,0l-0,-5.124c-0,-3.714 -2.947,-5.636 -5.765,-5.636c-2.946,0 -5.892,1.922 -5.892,5.636l0,5.124c-3.33,0 -6.661,0.256 -9.863,0.256c-13.834,0.128 -13.962,6.917 -13.962,18.19c-0,13.578 0.768,18.573 14.346,18.957c8.967,0.257 18.83,0.385 28.821,0.385c8.967,-0 17.933,-0.128 26.387,-0.385c13.707,-0.384 13.835,-8.069 13.835,-19.598c-0,-2.562 -0.128,-4.996 -0.257,-6.917c-0.512,-5.892 -5.508,-10.504 -13.449,-10.632c-3.715,0 -7.302,-0.256 -11.016,-0.256l-0,-5.124Zm33.048,57.514c3.33,0 4.995,-2.433 4.995,-4.867c0,-2.434 -1.665,-4.868 -4.995,-4.868l-99.529,0c-3.459,0 -5.252,2.562 -5.252,5.124c0,2.306 1.665,4.611 5.252,4.611l99.529,0Zm-0.128,48.292c3.458,-0 5.251,-2.562 5.251,-5.124c0,-2.562 -1.793,-5.124 -5.251,-5.124l-30.359,0c0,0 1.922,-4.355 1.922,-5.508c-0,-1.025 -0.384,-1.921 -1.025,-2.69l2.946,0c12.938,-0.256 12.938,-6.917 12.938,-13.193c-0,-8.455 -2.562,-11.401 -11.913,-11.529c-6.789,-0.128 -13.706,-0.128 -20.367,-0.128c-9.223,0 -18.189,0 -26.9,0.128c-11.912,0.128 -13.321,4.483 -13.321,12.425c-0,8.967 2.433,12.041 13.834,12.297l1.537,0c-0.769,0.641 -1.281,1.537 -1.281,2.562c-0,0.513 0.128,1.025 0.384,1.537c0.641,1.409 1.409,2.818 1.922,4.099l-29.206,0c-3.586,0 -5.508,2.69 -5.508,5.38c0,2.434 1.794,4.868 5.508,4.868l98.889,-0Zm-33.433,-85.567l0,-6.661c2.946,0 6.021,0.128 8.839,0.128c3.33,0 4.483,1.281 4.739,4.356c0,0.64 0.128,1.409 0.128,2.177l-13.706,0Zm13.706,7.301c0,0.897 -0.128,1.666 -0.128,2.434c-0.128,3.075 -1.409,4.355 -4.483,4.355c-2.946,0 -6.021,0.129 -9.095,0.129l0,-6.918l13.706,0Zm-24.21,-7.301l-12.681,0l0,-6.661l12.681,0l0,6.661Zm0,14.219l-12.681,-0l0,-6.918l12.681,0l0,6.918Zm-23.313,-14.219l-13.065,0l-0,-1.793c0.128,-2.562 1.281,-4.612 4.867,-4.74c2.69,0 5.38,-0.128 8.198,-0.128l0,6.661Zm0,14.219c-2.818,-0 -5.38,-0.129 -8.07,-0.129c-4.099,-0.128 -4.867,-1.409 -4.995,-4.227l-0,-2.562l13.065,0l0,6.918Zm41.759,40.221c-0,3.971 -0.128,3.971 -20.751,3.971c-8.198,-0 -16.524,-0 -23.441,-0.128c-2.947,-0 -4.227,-1.025 -4.227,-2.05c-0,-0.768 -0.129,-1.409 -0.129,-1.921c0,-2.434 0.641,-3.587 4.228,-3.587c6.404,-0.128 13.193,-0.128 20.11,-0.128c6.789,0 13.706,0 19.855,0.128c2.177,0 4.355,0.256 4.355,3.715Zm-31.639,20.879c-1.025,-2.946 -2.818,-6.276 -4.355,-8.07l21.776,0c-0,0.128 -0.257,0.385 -0.257,0.513c-0.896,3.202 -1.665,5.508 -2.433,7.557l-14.731,0Z" style="fill:#231815;fill-rule:nonzero;"/><path d="M1868.24,931.125c-3.458,-9.223 -12.553,-18.318 -22.8,-24.338c-7.942,-4.611 -13.578,4.996 -7.302,8.454c9.479,5.252 15.243,14.987 18.318,22.032c3.458,7.942 14.987,2.306 11.784,-6.148Zm-63.15,-22.288c1.537,-6.021 3.202,-13.707 3.715,-18.062c1.024,-8.582 -12.041,-9.351 -12.938,-1.024c-0.768,7.173 -2.434,14.73 -3.971,20.366l-6.404,0.641c-4.612,0.384 -8.583,0.256 -12.554,0.64c-8.198,0.769 -8.326,12.297 0.385,12.297c3.33,0 8.326,-0.768 13.834,-1.793l1.537,-0.256c-5.892,17.164 -13.834,31.767 -22.673,41.63c-8.326,9.351 4.996,16.781 11.145,8.07c9.991,-14.218 18.573,-31.639 24.85,-51.493c2.049,-0.257 3.971,-0.513 5.892,-0.641c5.892,-0.512 8.582,3.202 8.582,11.016c0,6.789 -1.152,15.884 -4.099,22.16c-3.586,7.558 -8.966,8.711 -16.268,6.917c-7.813,-1.921 -11.912,9.864 -1.793,12.81c12.297,3.586 24.85,-2.69 30.102,-15.371c3.331,-8.07 4.612,-19.599 4.355,-28.565c-0.512,-14.347 -8.71,-20.623 -19.47,-19.727l-4.227,0.385Z" style="fill:#231815;fill-rule:nonzero;"/><path d="M1974.17,912.807c8.71,1.922 11.144,-10.119 2.177,-12.297c-8.966,-2.177 -22.288,-2.049 -33.688,0.769c-9.351,2.306 -5.252,13.706 1.793,11.913c10.76,-2.69 20.495,-2.306 29.718,-0.385Zm6.917,58.411c8.454,-2.177 7.814,-15.755 -2.562,-13.578c-9.991,2.05 -25.363,4.099 -32.28,-2.177c-6.661,-6.021 -14.346,3.074 -9.094,8.838c9.222,9.991 30.23,10.376 43.936,6.917Zm-67.762,6.149c3.203,-2.818 1.665,-6.789 2.434,-10.248c0.769,-3.715 2.818,-9.607 7.558,-17.933c2.946,-5.124 -4.996,-11.272 -8.967,-4.996c-0.512,0.897 -1.921,3.459 -2.178,4.099c-0.512,1.153 -1.024,1.538 -1.409,-0.128c-3.074,-11.912 4.612,-42.014 6.661,-52.39c1.409,-7.429 -11.016,-10.248 -12.425,-0.769c-2.306,15.244 -12.425,53.159 -2.177,78.394c2.561,6.276 7.301,6.789 10.503,3.971Z" style="fill:#231815;fill-rule:nonzero;"/><path d="M2108.16,919.34c6.276,3.971 12.937,-6.661 4.227,-11.913c-6.149,-3.714 -15.115,-5.251 -23.569,-4.483c-8.198,0.769 -7.686,11.401 -0.641,11.016c7.43,-0.384 13.962,1.537 19.983,5.38Zm-57.77,-12.809c-6.277,13.45 -13.835,24.338 -21.008,34.969c-5.636,8.327 6.661,13.322 11.401,5.637c8.198,-13.322 16.908,-28.693 22.928,-43.168c5.252,-1.537 10.504,-3.587 13.706,-5.892c8.198,-5.893 0.128,-13.834 -5.636,-9.735c-1.153,0.768 -2.562,1.409 -4.099,2.177c0.897,-3.074 1.665,-5.892 1.794,-7.814c0.256,-7.301 -11.017,-8.71 -12.169,-1.152c-0.641,4.611 -1.281,8.71 -2.562,12.937c-6.661,1.665 -13.322,1.793 -17.549,0.384c-9.095,-2.946 -11.529,8.839 -3.715,11.016c4.868,1.409 10.376,1.922 16.909,0.641Zm40.349,60.076c2.946,2.049 5.38,4.355 7.301,6.661c6.149,7.429 16.525,-1.666 9.223,-9.735c-3.202,-3.459 -8.838,-7.43 -15.627,-10.248c-0.128,-2.818 -0.385,-5.508 -0.513,-7.942c-0.128,-3.714 -0.128,-6.917 -0.128,-9.863c0,-2.69 0.385,-4.099 0.769,-6.02c1.281,-7.686 -9.991,-9.351 -11.529,-2.306c-0.512,2.434 -0.768,6.02 -0.64,8.582c0.128,3.203 0.384,6.405 0.384,9.607l0,4.484c-7.942,-1.41 -16.652,-1.153 -24.594,2.433c-13.193,5.893 -11.784,19.727 0.128,25.747c15.5,7.814 31.511,-1.153 35.226,-11.4Zm-11.4,-6.021c-0.128,0.385 -0,0.897 -0.128,1.281c-1.409,6.917 -11.785,10.632 -19.471,6.789c-3.842,-1.921 -3.586,-5.636 -0.128,-7.429c6.277,-3.074 13.194,-2.818 19.727,-0.641Z" style="fill:#231815;fill-rule:nonzero;"/><path d="M2207.56,966.351c-0.385,-11.529 -9.992,-17.677 -20.239,-17.293c-15.115,0.512 -21.136,16.396 -7.558,25.234c9.735,6.405 29.718,5.893 42.399,-3.202c13.45,-9.735 19.471,-32.28 1.025,-43.296c-9.479,-5.636 -24.722,-5.636 -35.994,0.385c4.611,-4.484 9.735,-9.095 14.859,-13.834c5.123,-4.74 10.247,-9.736 14.346,-14.347c6.405,-7.173 -2.049,-16.268 -12.297,-13.322c-7.301,2.178 -19.598,5.252 -28.181,6.277c-8.71,1.025 -6.789,13.706 3.331,11.528c9.479,-2.049 17.933,-4.611 21.52,-6.532c1.024,-0.513 2.305,-1.025 0.896,0.768c-14.218,17.549 -24.594,27.412 -38.684,41.374c-7.942,7.814 4.868,15.372 9.479,8.583c2.946,-4.356 5.636,-6.661 10.76,-9.607c12.937,-7.558 26.771,-6.661 33.432,-2.178c7.302,4.868 7.686,17.037 -1.665,25.363c-2.306,2.049 -4.996,3.586 -7.429,4.099Zm-10.888,1.921c-3.587,0.128 -7.814,-0.384 -10.76,-1.921c-4.099,-2.178 -3.843,-7.43 1.793,-7.942c5.636,-0.513 9.095,3.971 8.967,9.863Z" style="fill:#231815;fill-rule:nonzero;"/><path d="M2368.58,954.822l0,0.769c0,10.888 -2.946,14.09 -14.858,14.09c-11.401,0 -11.785,-3.843 -11.785,-8.71c-0,-11.273 0.768,-68.274 0.768,-79.931c0,-2.049 0,-7.173 -6.404,-7.173c-3.203,-0 -6.277,1.665 -6.533,5.252c-0.256,3.971 -0.256,80.058 -0.256,85.566c-0,16.653 15.243,17.165 24.21,17.165c13.834,-0 28.052,-1.921 28.052,-26.387c0,-5.508 -4.867,-6.789 -7.173,-6.789c-3.074,-0 -6.021,1.921 -6.021,6.148Zm-49.444,-9.607c3.203,0 6.277,-3.202 6.277,-6.789c-0,-6.276 -13.706,-13.322 -16.14,-13.322c-3.202,0 -6.02,2.947 -6.02,5.765c-0,1.152 0.64,2.433 2.049,3.202c3.202,1.793 7.173,4.996 9.863,8.838c1.153,1.666 2.562,2.306 3.971,2.306Zm-17.549,34.329c0,0 -0.512,-32.664 -0.64,-52.646c2.049,-2.178 16.78,-18.702 16.78,-28.181c0,-4.867 -3.202,-8.582 -10.247,-8.71l-5.893,-0l0,-12.682c0,-3.842 -3.202,-5.764 -6.404,-5.764c-3.075,0 -6.277,1.922 -6.277,5.764l0.128,12.81c-4.483,0.128 -8.966,0.128 -12.937,0.256c-3.843,0 -5.765,2.818 -5.765,5.508c0,2.69 2.05,5.508 5.893,5.508l0.128,0c7.942,-0.128 15.627,-0.64 23.441,-0.64l2.306,-0c0.768,-0 1.921,0.384 1.921,1.665c0,2.177 -10.247,21.007 -33.56,33.56c-2.818,1.538 -3.971,3.587 -3.971,5.637c-0,3.074 2.562,5.764 6.276,5.764c4.612,-0 14.219,-7.558 16.909,-9.735l-0.641,41.886l0,0.128c0,3.459 3.203,5.252 6.405,5.252c3.074,0 6.148,-1.665 6.148,-5.252l0,-0.128Z" style="fill:#231815;fill-rule:nonzero;"/><path d="M2503.71,955.847c4.099,-0 6.149,-2.69 6.149,-5.508c-0,-2.69 -2.05,-5.508 -6.149,-5.508l-26.259,0.128l0,-11.657l19.342,0.129c3.715,-0 5.636,-2.69 5.636,-5.509c0,-2.689 -1.921,-5.379 -5.636,-5.379l-19.47,0.128l0,-10.888l19.47,0.128c3.715,-0 5.636,-2.69 5.636,-5.508c0,-2.69 -1.921,-5.38 -5.636,-5.38l-19.47,0.128l0,-10.888l23.185,0.128c4.099,0 6.148,-2.69 6.148,-5.508c0,-2.69 -2.049,-5.508 -6.148,-5.508l-56.233,-0c-3.843,-0 -6.021,2.946 -6.021,5.764c0,2.69 1.922,5.252 6.021,5.252l21.263,-0.128l-0.128,10.888l-17.42,-0.128c-3.715,-0 -5.765,2.818 -5.765,5.636c0,2.69 1.794,5.252 5.765,5.252l17.42,-0.128l0,10.888l-17.42,-0.128c-3.715,-0 -5.765,2.818 -5.765,5.636c0,2.69 1.794,5.252 5.765,5.252l17.42,-0.129l-0.128,11.657l-24.85,-0.128c-3.843,-0 -6.02,2.946 -6.02,5.764c-0,2.69 1.921,5.252 6.02,5.252l24.85,-0.128l0,23.185c0,3.971 3.074,5.892 6.149,5.892c3.074,0 6.148,-1.921 6.148,-5.892l-0.128,-23.185l26.259,0.128Zm-89.793,10.247c-0.128,4.356 -2.05,5.508 -4.74,5.508c-1.409,0 -2.946,-0.256 -4.611,-0.64c-0.385,-0.128 -0.769,-0.128 -1.153,-0.128c-3.202,-0 -4.996,2.946 -4.996,5.892c0,3.459 1.281,6.917 11.785,6.917c11.785,0 16.14,-7.173 16.14,-15.371l-0,-0.64c-0.128,-4.484 -0.513,-16.14 -0.513,-18.19l0,-13.193c12.682,-5.765 15.243,-7.174 15.243,-10.888c0,-2.818 -2.305,-5.508 -5.123,-5.508c-0.769,-0 -1.665,0.256 -2.434,0.64c-2.434,1.281 -4.868,2.562 -7.558,3.715l0,-15.5l8.967,0c3.843,0 5.636,-2.818 5.636,-5.636c0,-2.818 -1.793,-5.636 -5.636,-5.636l-8.967,0l0,-20.495c0,-4.099 -2.946,-6.02 -6.02,-6.02c-3.074,-0 -6.148,2.049 -6.148,6.02l0.128,20.495l-11.913,0c-3.715,0 -5.636,2.818 -5.636,5.636c-0,2.818 1.921,5.636 5.636,5.636l11.913,0l-0,20.239c-4.612,1.665 -9.479,3.203 -14.603,4.74c-3.074,0.896 -4.355,3.202 -4.355,5.508c-0,3.074 2.434,6.276 6.404,6.276c2.306,0 7.686,-2.177 12.554,-4.099l-0,24.722Z" style="fill:#231815;fill-rule:nonzero;"/><path d="M2627.2,965.838c9.863,4.868 16.652,-8.582 8.326,-12.809c-17.805,-9.223 -35.61,-24.722 -52.006,-36.507c-9.223,-6.661 -17.805,-8.326 -28.949,-0.384c-6.533,4.611 -16.268,10.504 -19.471,12.169c-10.247,5.38 -1.024,17.036 7.43,12.041c6.789,-3.971 12.809,-9.479 18.958,-14.347c5.38,-4.227 8.71,-4.483 15.115,0.256c14.859,11.016 35.097,31.896 50.597,39.581Z" style="fill:#231815;fill-rule:nonzero;"/></svg>