<?xml version="1.0" encoding="UTF-8" standalone="no"?><!DOCTYPE svg PUBLIC "-//W3C//DTD SVG 1.1//EN" "http://www.w3.org/Graphics/SVG/1.1/DTD/svg11.dtd"><svg width="100%" height="100%" viewBox="0 0 2000 1377" version="1.1" xmlns="http://www.w3.org/2000/svg" xmlns:xlink="http://www.w3.org/1999/xlink" xml:space="preserve" xmlns:serif="http://www.serif.com/" style="fill-rule:evenodd;clip-rule:evenodd;stroke-linejoin:round;stroke-miterlimit:2;"><path d="M975.831,554.837c25.976,-31.389 40.975,-72.033 39.032,-115.935c-4.165,-93.946 -83.698,-166.735 -177.644,-162.569c-46.006,2.036 -86.854,22.226 -116.156,53.251l-0.051,-0.043l-0.764,0.857c-0.856,0.916 -1.679,1.849 -2.519,2.791l-408.149,453.578l-251.426,269.394c-0.127,0.118 -0.271,0.22 -0.398,0.339c-5.209,4.895 -10.002,10.197 -14.558,15.695l-0.916,0.975l0.093,0.076c-25.756,31.559 -40.483,72.305 -38.244,116.199c4.794,93.912 84.818,166.158 178.731,161.364c45.989,-2.35 86.701,-22.812 115.799,-54.031l0.043,0.042l0.763,-0.856c0.849,-0.925 1.671,-1.867 2.494,-2.817l371.781,-418.788l286.191,-302.538c0.127,-0.119 0.279,-0.22 0.407,-0.348c5.243,-4.852 10.07,-10.12 14.668,-15.584l0.916,-0.967l-0.093,-0.085Z" style="fill:#2ca6e0;fill-rule:nonzero;"/><path d="M1669.37,570.326c25.849,-31.729 40.763,-72.823 38.795,-117.225c-4.225,-95.024 -83.511,-168.695 -177.093,-164.563c-45.828,2.027 -86.506,22.413 -115.672,53.768l-0.051,-0.042l-0.764,0.865c-0.848,0.925 -1.671,1.875 -2.502,2.817l-406.241,458.431l-250.246,272.269c-0.127,0.119 -0.271,0.229 -0.398,0.348c-5.192,4.945 -9.96,10.299 -14.499,15.855l-0.907,0.984l0.093,0.085c-25.637,31.898 -40.28,73.094 -38.006,117.488c4.844,94.99 84.623,168.126 178.17,163.35c45.811,-2.342 86.354,-23.008 115.316,-54.558l0.043,0.043l0.763,-0.866c0.84,-0.933 1.654,-1.891 2.486,-2.842l370.024,-423.275l284.867,-305.77c0.128,-0.119 0.272,-0.221 0.399,-0.348c5.226,-4.904 10.028,-10.231 14.6,-15.754l0.917,-0.976l-0.094,-0.084Z" style="fill:#60c1c9;fill-rule:nonzero;"/><path d="M4.954,1191.82c2.588,39.601 19.131,78.65 49.849,108.919c65.73,64.78 170.68,64.899 234.399,0.272c31.211,-31.652 46.642,-72.958 46.651,-114.485l0.059,0l-0.025,-1.12c-0.009,-1.221 -0.051,-2.435 -0.085,-3.656l-14.744,-661.56l0.373,-67.953c0.017,-0.169 0.042,-0.339 0.059,-0.509c0.416,-6.939 0.272,-13.887 -0.178,-20.835l-0.008,-1.289l-0.119,-0c-2.85,-39.584 -19.656,-78.524 -50.579,-108.598c-66.154,-64.338 -161.398,-63.677 -224.676,1.392c-30.991,31.864 -46.142,73.28 -45.871,114.807l-0.059,-0l0.034,1.12c0.008,1.221 0.068,2.434 0.11,3.656l5.141,322.016l-0.424,405.189c-0.017,0.169 -0.051,0.339 -0.059,0.509c-0.467,6.931 -0.365,13.887 0.034,20.827l-0,1.298l0.118,-0Z" style="fill:#00a199;fill-rule:nonzero;"/><g><g><path d="M697.865,1214.2c2.901,40.483 20.055,80.5 51.656,111.634c67.613,66.621 174.904,67.419 239.641,1.765c31.703,-32.144 47.211,-74.265 46.965,-116.699l0.059,0l-0.034,-1.145c-0.017,-1.247 -0.067,-2.486 -0.11,-3.733l-19.283,-676.202l-0.051,-69.454c0.009,-0.17 0.034,-0.34 0.051,-0.518c0.382,-7.084 0.187,-14.193 -0.314,-21.294l-0.017,-1.323l-0.118,0.009c-3.173,-40.475 -20.598,-80.382 -52.403,-111.312c-68.046,-66.18 -165.411,-66.104 -229.691,-0.009c-31.482,32.365 -46.701,74.604 -46.167,117.038l-0.059,0l0.042,1.146c0.026,1.247 0.085,2.494 0.136,3.741l7.304,329.125l2.155,414.097c-0.017,0.178 -0.051,0.347 -0.059,0.526c-0.433,7.075 -0.289,14.184 0.169,21.285l0.009,1.323l0.119,0Z" style="fill:#2ca6e0;fill-rule:nonzero;"/></g></g><path d="M1716.58,297.512c-70.269,-62.49 -76.581,-170.111 -14.091,-240.388c62.489,-70.269 170.111,-76.581 240.388,-14.092c38.956,34.647 58.256,83.164 57.068,131.495c-0.95,38.845 -15.134,77.581 -42.977,108.894c-62.489,70.268 -170.119,76.58 -240.388,14.091" style="fill:#62c1c9;fill-rule:nonzero;"/></svg>