<?xml version="1.0" encoding="UTF-8" standalone="no"?><!DOCTYPE svg PUBLIC "-//W3C//DTD SVG 1.1//EN" "http://www.w3.org/Graphics/SVG/1.1/DTD/svg11.dtd"><svg width="100%" height="100%" viewBox="0 0 2688 676" version="1.1" xmlns="http://www.w3.org/2000/svg" xmlns:xlink="http://www.w3.org/1999/xlink" xml:space="preserve" xmlns:serif="http://www.serif.com/" style="fill-rule:evenodd;clip-rule:evenodd;stroke-linejoin:round;stroke-miterlimit:2;"><path d="M479.279,272.508c12.759,-15.416 20.125,-35.379 19.171,-56.941c-2.046,-46.142 -41.108,-81.892 -87.25,-79.846c-22.596,1 -42.658,10.916 -57.05,26.154l-0.025,-0.021l-0.375,0.421c-0.421,0.45 -0.825,0.908 -1.237,1.371l-200.463,222.775l-123.487,132.312c-0.063,0.059 -0.134,0.109 -0.196,0.167c-2.559,2.404 -4.913,5.008 -7.15,7.708l-0.45,0.479l0.046,0.038c-12.65,15.5 -19.884,35.512 -18.784,57.071c2.354,46.125 41.659,81.608 87.784,79.254c22.587,-1.154 42.583,-11.204 56.875,-26.538l0.02,0.021l0.375,-0.421c0.417,-0.454 0.821,-0.916 1.225,-1.383l182.6,-205.687l140.563,-148.592c0.062,-0.058 0.137,-0.108 0.2,-0.171c2.575,-2.383 4.946,-4.971 7.204,-7.654l0.45,-0.475l-0.046,-0.042Z" style="fill:#2ca6e0;fill-rule:nonzero;"/><path d="M819.909,280.115c12.696,-15.583 20.021,-35.766 19.054,-57.575c-2.075,-46.67 -41.016,-82.854 -86.979,-80.825c-22.508,0.996 -42.487,11.009 -56.812,26.409l-0.025,-0.021l-0.375,0.425c-0.417,0.454 -0.821,0.921 -1.229,1.383l-199.525,225.159l-122.909,133.725c-0.062,0.058 -0.133,0.112 -0.196,0.17c-2.55,2.43 -4.891,5.059 -7.12,7.788l-0.446,0.483l0.046,0.042c-12.592,15.667 -19.784,35.9 -18.667,57.704c2.379,46.654 41.562,82.575 87.508,80.229c22.5,-1.15 42.413,-11.3 56.638,-26.796l0.021,0.021l0.375,-0.425c0.412,-0.458 0.812,-0.929 1.22,-1.396l181.738,-207.891l139.912,-150.179c0.063,-0.059 0.134,-0.109 0.196,-0.171c2.567,-2.409 4.925,-5.025 7.171,-7.738l0.45,-0.479l-0.046,-0.042Z" style="fill:#60c1c9;fill-rule:nonzero;"/><path d="M2.433,585.364c1.271,19.45 9.396,38.629 24.484,53.496c32.283,31.816 83.829,31.875 115.125,0.133c15.329,-15.546 22.908,-35.833 22.912,-56.229l0.029,-0l-0.012,-0.55c-0.004,-0.6 -0.025,-1.196 -0.042,-1.796l-7.241,-324.925l0.183,-33.375c0.008,-0.083 0.021,-0.167 0.029,-0.25c0.204,-3.408 0.133,-6.821 -0.087,-10.233l-0.005,-0.634l-0.058,0c-1.4,-19.441 -9.654,-38.566 -24.842,-53.337c-32.491,-31.6 -79.27,-31.275 -110.35,0.683c-15.22,15.65 -22.662,35.992 -22.529,56.388l-0.029,-0l0.017,0.55c0.004,0.6 0.033,1.195 0.054,1.795l2.525,158.159l-0.208,199.008c-0.009,0.083 -0.025,0.167 -0.03,0.25c-0.229,3.404 -0.179,6.821 0.017,10.229l0,0.638l0.058,-0Z" style="fill:#00a199;fill-rule:nonzero;"/><g><g><path d="M342.756,596.353c1.425,19.883 9.85,39.537 25.371,54.829c33.208,32.721 85.904,33.113 117.7,0.867c15.571,-15.788 23.188,-36.475 23.067,-57.317l0.029,0l-0.017,-0.562c-0.008,-0.613 -0.033,-1.221 -0.054,-1.834l-9.471,-332.116l-0.025,-34.113c0.004,-0.083 0.017,-0.167 0.025,-0.254c0.188,-3.479 0.092,-6.971 -0.154,-10.458l-0.008,-0.65l-0.059,0.004c-1.558,-19.879 -10.116,-39.479 -25.737,-54.671c-33.421,-32.504 -81.242,-32.467 -112.813,-0.004c-15.462,15.896 -22.937,36.641 -22.675,57.483l-0.029,0l0.021,0.563c0.013,0.612 0.042,1.225 0.067,1.837l3.587,161.65l1.059,203.383c-0.009,0.088 -0.025,0.171 -0.03,0.259c-0.212,3.475 -0.141,6.966 0.084,10.454l0.004,0.65l0.058,-0Z" style="fill:#2ca6e0;fill-rule:nonzero;"/></g></g><path d="M843.1,146.123c-34.513,-30.692 -37.613,-83.55 -6.921,-118.067c30.691,-34.512 83.55,-37.612 118.066,-6.921c19.134,17.017 28.613,40.846 28.03,64.584c-0.467,19.079 -7.434,38.104 -21.109,53.483c-30.691,34.513 -83.554,37.613 -118.066,6.921" style="fill:#62c1c9;fill-rule:nonzero;"/><path d="M1245.42,633.642c-19.563,0 -39.13,-14.35 -46.955,-46.087c-11.308,-46.088 -33.916,-180.442 -38.7,-216.963c-0.866,-5.654 -2.17,-7.829 -3.475,-7.829c-1.304,0 -2.612,3.042 -3.483,7.829c-5.65,39.563 -26.521,163.046 -40.433,216.53c-7.829,31.304 -29.134,46.52 -50.004,46.52c-21.305,0 -41.738,-15.216 -48.263,-46.087c-46.521,-220.008 -52.608,-253.054 -52.608,-260.879c-0,-15.221 13.479,-23.046 26.525,-23.046c12.171,-0 23.912,6.521 26.083,19.133c43.483,250.009 44.354,252.617 50.438,252.617c3.479,-0 6.52,-4.783 7.829,-11.304c8.262,-36.088 31.737,-167.834 43.046,-225.663c4.341,-23.475 22.17,-33.912 40,-33.912c19.129,-0 38.262,11.741 42.175,32.175c9.566,49.566 31.304,174.787 40.433,225.225c1.308,7.391 3.479,10 5.654,10c6.088,-0 8.7,-0 57.829,-249.571c2.609,-12.613 13.475,-18.7 24.35,-18.7c13.475,-0 27.392,8.696 27.392,22.612c-0,8.259 -23.046,111.742 -59.571,263.05c-6.958,28.7 -27.825,44.35 -48.262,44.35" style="fill:#00a199;fill-rule:nonzero;"/><path d="M1536.31,484.941c0,-6.083 -9.133,-31.741 -48.262,-31.741c-35.217,-0 -54.35,30.437 -54.35,37.829c-0,3.912 4.346,3.912 44.779,3.912c17.829,0 37.396,0 49.133,-0.433c5.221,-0.433 8.7,-4.346 8.7,-9.567m-47.829,152.179c-59.566,0 -103.916,-44.783 -103.916,-109.566c-0,-66.525 46.958,-112.179 103.05,-112.179c59.995,-0 93.912,43.912 93.912,76.958c0,20.433 -13.479,36.958 -41.304,37.829c-13.479,0.433 -22.608,0.433 -106.963,0.433c-2.608,0 -3.479,3.48 -3.479,8.263c0.434,36.087 28.263,57.825 59.134,57.825c27.395,-0 43.916,-13.042 56.525,-26.521c4.35,-4.779 9.562,-6.954 14.783,-6.954c11.742,-0 23.042,10.433 23.042,22.608c-0,5.217 -1.738,10.434 -6.521,15.217c-20.871,21.742 -44.35,36.087 -88.263,36.087" style="fill:#2ca6e0;fill-rule:nonzero;"/><path d="M1722.39,637.555c-70.875,0 -107.395,-40.433 -107.395,-61.741c-0,-14.35 12.608,-24.784 25.216,-24.784c6.959,0 13.917,3.48 19.129,10.871c11.309,16.088 32.613,29.134 63.484,29.134c47.825,-0 58.262,-32.613 58.262,-46.525c0,-17.392 -10.437,-36.088 -33.046,-48.696c-19.133,-10.871 -42.608,-23.917 -65.654,-34.35c-38.262,-17.392 -55.654,-48.263 -55.654,-78.267c0,-42.175 33.917,-82.612 93.917,-82.612c60.004,-0 94.354,28.7 94.354,49.137c-0,13.042 -10.875,25.217 -24.354,25.217c-6.521,-0 -13.913,-3.046 -20.434,-10.438c-8.262,-9.129 -23.045,-20 -50.004,-20c-27.825,0 -44.779,17.392 -44.779,36.959c0,13.479 8.258,28.262 27.392,38.262c17.825,9.567 47.829,23.479 67.825,34.35c43.483,23.913 61.741,56.958 61.741,89.133c0,46.521 -39.562,94.35 -110,94.35" style="fill:#2ca6e0;fill-rule:nonzero;"/><path d="M1989.79,531.9c-73.479,9.13 -77.829,27.392 -77.829,37.83c0,13.479 11.742,26.954 33.917,26.954c35.216,-0 50.433,-17.825 50.433,-48.696c0,-6.521 -0.867,-16.088 -6.087,-16.088l-0.434,0Zm40.004,93.484c-3.916,-3.046 -7.829,-7.829 -11.741,-14.35c-0.438,-0.871 -1.304,-1.304 -1.738,-1.304c-0.871,-0 -1.737,0.433 -2.608,1.304c-14.783,16.958 -42.175,26.087 -67.829,26.087c-47.829,0 -76.092,-34.783 -76.092,-68.262c0,-22.175 13.046,-44.35 42.175,-54.35c30,-10.434 67.396,-18.696 74.354,-19.134c4.346,-0.433 7.825,-5.65 7.825,-14.783c0,-5.217 -1.304,-27.392 -30.871,-27.392c-19.566,0 -34.345,9.134 -42.612,18.263c-4.779,5.654 -10.867,7.829 -16.088,7.829c-11.304,0 -20.866,-8.7 -20.866,-20.004c-0,-20.871 38.262,-43.917 82.175,-43.917c47.829,0 73.912,23.484 73.912,73.484c0,5.654 -0.433,10.87 -0.866,16.958c-0.871,6.521 -2.175,23.042 -2.175,36.087c-0,3.913 -0,7.392 0.437,10c3.913,34.784 20,36.088 23.479,38.7c4.779,3.475 6.954,9.13 6.954,15.217c0,12.175 -9.566,26.088 -22.175,26.088c-4.779,-0 -10.433,-2.175 -15.65,-6.521" style="fill:#2ca6e0;fill-rule:nonzero;"/><path d="M2250.24,612.338c0.434,-17.825 0.871,-50.871 0.871,-77.392c0,-17.396 -0.437,-32.175 -0.871,-39.133c-1.737,-26.958 -16.954,-37.829 -35.216,-37.829c-26.525,-0 -58.263,23.479 -59.571,52.612c-0.434,7.825 -0.434,17.825 -0.434,30c0,17.829 0.434,40.871 1.309,71.742c0.433,9.133 -4.788,22.175 -22.179,22.175c-11.738,-0 -23.042,-7.392 -23.042,-21.304l-0,-0.871c1.3,-41.304 1.737,-70.004 1.737,-95.654c0,-26.088 -0.437,-48.696 -1.304,-77.829l0,-0.871c0,-13.046 12.609,-19.567 23.484,-19.567c10.866,0 22.17,6.521 22.17,20.438c0,1.737 -0.433,3.041 -0.433,4.345l0,1.305c0,0.437 0,0.87 0.433,0.87c0.434,0 1.305,-0.87 2.175,-1.741c16.084,-17.388 39.134,-26.088 61.742,-26.088c36.521,0 71.738,23.917 73.475,72.613c0.442,15.654 1.308,54.35 1.308,86.525c0,13.479 0,25.654 -0.433,34.783c-0.433,15.654 -11.304,23.046 -22.612,23.046c-11.3,-0 -22.609,-7.825 -22.609,-21.742l0,-0.433Z" style="fill:#2ca6e0;fill-rule:nonzero;"/><path d="M2532.86,526.247c0,-43.046 -27.829,-69.567 -62.612,-69.567c-34.784,0 -62.609,26.521 -62.609,69.567c0,42.608 27.825,68.7 62.609,68.7c34.783,0 62.612,-26.092 62.612,-68.7m-121.312,87.829c-0.867,-0.871 -1.738,-1.304 -2.605,-1.304c-0.437,0 -0.87,0.433 -1.304,2.175c-2.179,12.175 -12.175,18.263 -21.741,18.263c-10.871,-0 -22.18,-7.83 -22.18,-23.917c0,-43.479 1.309,-134.788 1.309,-203.483c-0,-34.35 -0.434,-63.046 -1.309,-77.396c-1.3,-21.304 17.83,-24.784 22.617,-24.784c11.3,0 22.171,7.392 22.171,21.738l-0,0.875c-0.433,18.258 -1.304,62.175 -1.304,112.608c-0,1.742 0.437,2.175 1.304,2.175c0.437,0 1.304,0 2.175,-0.866c16.092,-14.35 36.521,-23.046 60.437,-23.046c60,-0 105.221,45.654 105.221,109.133c0,65.654 -45.221,109.138 -105.221,109.138c-23.483,-0 -43.479,-7.83 -59.57,-21.309" style="fill:#2ca6e0;fill-rule:nonzero;"/><path d="M2657.21,635.817c-11.742,0 -23.046,-7.391 -23.046,-22.175c0,-36.087 0.438,-85.654 0.438,-125.225c-0,-19.562 -0,-36.954 -0.438,-48.695c-0.437,-14.346 10.438,-22.175 23.479,-22.175c11.305,-0 23.046,6.958 23.046,20.87l0,0.871c-0.437,17.825 -0.871,52.175 -0.871,88.7c0,30 0.434,60.871 0.871,84.784l0,0.87c0,14.784 -11.741,22.175 -23.479,22.175m-30.437,-304.358c-0,-21.308 18.262,-29.567 30.437,-29.567c15.65,0 30.433,13.046 30.433,29.567c0,15.654 -11.741,30.871 -30.433,30.871c-16.958,-0 -30.437,-10.871 -30.437,-30.871" style="fill:#2ca6e0;fill-rule:nonzero;"/></svg>